# xmcd
#
# Track frame offsets:
#	150
#	27582
#	54265
#	71686
#	96335
#	127452
#	147237
#	163027
#	189326
#	203203
#	229368
#	250210
#	269672
#	279487
#
# Disc length: 4102 seconds
#
# Revision: 1
# Processed by: cddbd v1.5.1PL0 Copyright (c) Steve Scherf et al.
# Submitted via: CDex 1.50Beta5
#
DISCID=df10040e
DTITLE=難波正司 - 東風
DYEAR=2002
DGENRE=Fusion
TTITLE0=難波正司/清流
TTITLE1=ツトム・ヤマシタ/変奏曲「紫野」-Land of Murasakino,Kyoto
TTITLE2=與那覇徹・新垣雄・上地一成/花
TTITLE3=山崎箜山/田園のうた
TTITLE4=鼓童/SHAKE〜いつかまた
TTITLE5=吉田兄弟/STORM
TTITLE6=ツトム・ヤマシタ/変奏曲「残影」-The Shadow Remains
TTITLE7=與那覇徹・新垣雄・上地一成/ワダツミの木
TTITLE8=吉田兄弟/ラビリンス〜モダン第二章〜
TTITLE9=鼓童/Strobe’s Nanafushi(Satori Mix)
TTITLE10=宮本文昭/越天楽
TTITLE11=巨勢典子/紅葉
TTITLE12=宮本文昭/白日夢〜潮の音
TTITLE13=山崎箜山/家路
EXTD=
EXTT0=
EXTT1=
EXTT2=
EXTT3=
EXTT4=
EXTT5=
EXTT6=
EXTT7=
EXTT8=
EXTT9=
EXTT10=
EXTT11=
EXTT12=
EXTT13=
PLAYORDER=
